<?xml version="1.0" encoding="iso-8859-1"?>
<!-- Generator: Adobe Illustrator 19.0.0, SVG Export Plug-In . SVG Version: 6.00 Build 0)  -->
<svg version="1.1" id="Capa_1" xmlns="http://www.w3.org/2000/svg" xmlns:xlink="http://www.w3.org/1999/xlink" x="0px" y="0px"
	 viewBox="0 0 480 480" style="enable-background:new 0 0 480 480;" xml:space="preserve">
<path style="fill:#EFE5D3;" d="M256,320L248,8c-19.152,19.448-45.272,51.056-64,96c-33.592,80.608-22.432,153.792-16,184l40,8v24
	H256z"/>
<path style="fill:#68C9BA;" d="M320,320l-8,96l-4.928,1.64C295.68,421.44,288,432.096,288,444.104l0,0
	C288,459.512,300.488,472,315.896,472H320h24c17.672,0,32-14.328,32-32V320h-48H320z"/>
<path style="fill:#EFE5D3;" d="M376,320V94.16c0-32.712-19.92-62.128-50.288-74.28L296,8v16v264l32,8v24H376z"/>
<path style="fill:#F7BA21;" d="M200,320l-8,96l-4.928,1.64C175.68,421.44,168,432.096,168,444.104l0,0
	C168,459.512,180.488,472,195.896,472H200h24c17.672,0,32-14.328,32-32V320h-48H200z"/>
<path style="fill:#68C9BA;" d="M432,432l-13.056,4.352c-6.536,2.176-10.944,8.296-10.944,15.184V456c0,8.84,7.16,16,16,16h32
	c8.84,0,16-7.16,16-16V320h-32L432,432z"/>
<path style="fill:#EFE5D3;" d="M426.128,152c-21.464,56.968-21.52,107.776-18.128,136l32,16v16h32l-8-240
	C450.944,97.096,437.784,121.072,426.128,152z"/>
<path style="fill:#68C9BA;" d="M64,416l-4.928,1.64C47.68,421.44,40,432.096,40,444.104l0,0C40,459.512,52.488,472,67.896,472H72h24
	c17.672,0,32-14.328,32-32V320H72L64,416z"/>
<polygon style="fill:#EFE5D3;" points="72,320 128,320 128,8 40,8 8,8 8,296 64,304 "/>
<g>
	<path style="fill:#353535;" d="M256,7.8c-0.08-3.208-2.072-6.056-5.056-7.24c-2.984-1.168-6.384-0.456-8.64,1.832
		c-28.328,28.776-50.432,61.928-65.68,98.536c-30.976,74.328-26.032,143.664-16.44,188.744c0.664,3.128,3.128,5.552,6.256,6.176
		L200,302.56V312c-4.16,0-7.624,3.184-7.976,7.336l-7.56,90.744C169.832,414.992,160,428.656,160,444.104
		C160,463.896,176.104,480,195.896,480H224c22.056,0,40-17.944,40-40V320c0-0.04-0.024-0.064-0.024-0.104
		c0-0.032,0.016-0.064,0.016-0.096L256,7.8z M209.568,288.16l-34.792-6.96c-8.392-42.88-11.632-106.352,16.608-174.12
		c12.008-28.816,28.496-55.376,49.128-79.184L247.792,312H216v-16C216,292.184,213.312,288.904,209.568,288.16z M248,440
		c0,13.232-10.768,24-24,24h-28.104C184.928,464,176,455.072,176,444.104c0-8.576,5.472-16.168,13.6-18.872l4.928-1.64
		c3.04-1.008,5.176-3.736,5.448-6.928L207.36,328H208h40V440z"/>
	<rect x="216" y="344" style="fill:#353535;" width="16" height="16"/>
	<rect x="336" y="384" style="fill:#353535;" width="16" height="16"/>
	<rect x="336" y="424" style="fill:#353535;" width="16" height="16"/>
	<path style="fill:#353535;" d="M312.024,319.336l-7.56,90.744C289.832,414.992,280,428.656,280,444.104
		C280,463.896,296.104,480,315.896,480H344c22.056,0,40-17.944,40-40V320V94.168c0-36.192-21.712-68.264-55.32-81.712l-29.712-11.88
		c-2.472-0.984-5.248-0.672-7.456,0.808C289.32,2.864,288,5.344,288,8v280c0,3.672,2.496,6.872,6.056,7.76L320,302.248V312
		C315.84,312,312.376,315.184,312.024,319.336z M368,440c0,13.232-10.768,24-24,24h-28.104C304.928,464,296,455.072,296,444.104
		c0-8.576,5.472-16.168,13.6-18.872l4.928-1.64c3.04-1.008,5.176-3.736,5.448-6.928L327.36,328H328h40V440z M329.944,288.24
		L304,281.752V19.816l18.736,7.496c27.496,11,45.264,37.24,45.264,66.856V312h-32v-16C336,292.336,333.504,289.136,329.944,288.24z"
		/>
	<rect x="336" y="344" style="fill:#353535;" width="16" height="16"/>
	<rect x="216" y="384" style="fill:#353535;" width="16" height="16"/>
	<rect x="216" y="424" style="fill:#353535;" width="16" height="16"/>
	<path style="fill:#353535;" d="M480,319.736l-8-240c-0.112-3.376-2.336-6.328-5.56-7.352c-3.232-1.016-6.744,0.08-8.8,2.768
		c-14.336,18.768-27.816,44.368-39,74.032c-24.216,64.272-21.064,119.16-18.584,139.776c0.32,2.664,1.96,5,4.36,6.2L432,308.944
		v10.76l-7.6,106.4l-7.992,2.664C406.6,432.032,400,441.184,400,451.528V456c0,13.232,10.768,24,24,24h32c13.232,0,24-10.768,24-24
		V320c0-0.048-0.024-0.088-0.024-0.128C479.976,319.824,480,319.784,480,319.736z M415.48,282.8
		c-2.152-22.048-3.328-71.016,18.136-127.976c6.984-18.52,14.848-35.304,23.224-49.616L463.728,312H448v-8
		c0-3.032-1.712-5.8-4.424-7.16L415.48,282.8z M464,456c0,4.408-3.592,8-8,8h-32c-4.408,0-8-3.592-8-8v-4.472
		c0-3.448,2.2-6.496,5.472-7.584l13.056-4.352c3.064-1.024,5.216-3.792,5.448-7.016L447.448,328H464V456z"/>
	<rect x="88" y="344" style="fill:#353535;" width="16" height="16"/>
	<rect x="88" y="384" style="fill:#353535;" width="16" height="16"/>
	<rect x="88" y="424" style="fill:#353535;" width="16" height="16"/>
	<path style="fill:#353535;" d="M6.864,303.92l51.848,7.408l5.12,10.248l-7.368,88.504C41.832,414.992,32,428.656,32,444.104
		C32,463.896,48.104,480,67.896,480H96c22.056,0,40-17.944,40-40V320V8c0-4.416-3.584-8-8-8H40H8C3.584,0,0,3.584,0,8v288
		C0,299.984,2.928,303.352,6.864,303.92z M120,440c0,13.232-10.768,24-24,24H67.896C56.928,464,48,455.072,48,444.104
		c0-8.576,5.472-16.168,13.6-18.872l4.928-1.64c3.04-1.008,5.176-3.736,5.448-6.928L79.36,328H120V440z M120,312H76.944
		l-5.792-11.576c-1.176-2.344-3.424-3.968-6.024-4.336L48,293.632V16h72V312z M16,16h16v275.344l-16-2.288V16z"/>
	<rect x="88" y="32" style="fill:#353535;" width="16" height="16"/>
</g>
<g>
</g>
<g>
</g>
<g>
</g>
<g>
</g>
<g>
</g>
<g>
</g>
<g>
</g>
<g>
</g>
<g>
</g>
<g>
</g>
<g>
</g>
<g>
</g>
<g>
</g>
<g>
</g>
<g>
</g>
</svg>
