<svg id="Layer_1" enable-background="new 0 0 256 256" height="512" viewBox="0 0 256 256" width="512" xmlns="http://www.w3.org/2000/svg"><g><path d="m147.587 47.697h-44.5v-31.25c0-5.523 4.477-10 10-10h24.5c5.523 0 10 4.477 10 10z" fill="#87828e"/><path d="m128.087 6.447c-5.52 0-10 4.48-10 10v31.25h-15v-31.25c0-5.52 4.48-10 10-10z" fill="#a4a4a5"/><path d="m208.825 93.739-19.605-23.364 23.939-20.087c4.231-3.55 10.538-2.998 14.088 1.233l6.749 8.043c3.55 4.231 2.998 10.538-1.233 14.088z" fill="#87828e"/><path d="m233.957 59.517c-3.71-2.5-8.77-2.36-12.36.66l-24.02 20.16-8.36-9.96 23.94-20.09c4.23-3.55 10.54-3 14.09 1.23z" fill="#a4a4a5"/><circle cx="125.337" cy="143.886" fill="#f9d335" r="105.667"/><circle cx="125.337" cy="143.886" fill="#ffe2e2" r="85.667"/><circle cx="125.337" cy="143.886" fill="#ff4a73" r="11.16"/><path d="m132.837 229.227c-2.47.22-4.97.33-7.5.33-47.31 0-85.67-38.36-85.67-85.67s38.36-85.67 85.67-85.67c2.53 0 5.03.11 7.5.33-43.8 3.79-78.17 40.56-78.17 85.34s34.37 81.55 78.17 85.34z" fill="#ffefee"/><path d="m211.007 143.887c0 47.31-38.36 85.67-85.67 85.67-2.53 0-5.03-.11-7.5-.33 43.8-3.79 78.17-40.56 78.17-85.34s-34.37-81.55-78.17-85.34c2.47-.22 4.97-.33 7.5-.33 47.31 0 85.67 38.36 85.67 85.67z" fill="#ffcfcf"/><g fill="#5f266d"><path d="m15.67 143.886c0 60.47 49.196 109.667 109.667 109.667s109.667-49.196 109.667-109.667c0-19.88-5.318-38.541-14.605-54.636l14.939-12.539c5.91-4.96 6.684-13.805 1.725-19.714l-6.751-8.052c-4.975-5.926-13.797-6.697-19.726-1.723l-14.962 12.552c-12.6-10.546-27.594-18.317-44.037-22.372v-20.955c0-7.72-6.28-14-14-14h-24.5c-7.72 0-14 6.28-14 14v20.956c-47.835 11.795-83.417 55.059-83.417 106.483zm200.059-90.535c2.5-2.098 6.294-1.837 8.453.736l6.751 8.052c2.125 2.532 1.794 6.32-.737 8.445l-14.088 11.825c-4.233-6.229-9.092-11.999-14.482-17.225zm-108.642-36.904c0-3.309 2.691-6 6-6h24.5c3.309 0 6 2.691 6 6v19.299c-5.938-.999-12.033-1.527-18.25-1.527s-12.313.528-18.25 1.527zm18.25 25.773c56.06 0 101.667 45.607 101.667 101.667s-45.607 101.667-101.667 101.667-101.667-45.609-101.667-101.668 45.607-101.666 101.667-101.666z"/><path d="m125.337 233.553c49.442 0 89.667-40.224 89.667-89.667s-40.225-89.666-89.667-89.666-89.667 40.224-89.667 89.666 40.225 89.667 89.667 89.667zm-4-171.232v22.565c0 2.209 1.791 4 4 4s4-1.791 4-4v-22.565c41.854 2.029 75.537 35.711 77.566 77.565h-22.566c-2.209 0-4 1.791-4 4s1.791 4 4 4h22.566c-2.029 41.854-35.711 75.536-77.566 77.565v-22.565c0-2.209-1.791-4-4-4s-4 1.791-4 4v22.565c-41.854-2.029-75.537-35.711-77.566-77.565h22.566c2.209 0 4-1.791 4-4s-1.791-4-4-4h-22.566c2.029-41.854 35.712-75.536 77.566-77.565z"/><path d="m111.577 137.562c-.89 1.928-1.4 4.066-1.4 6.325 0 8.359 6.801 15.16 15.16 15.16s15.16-6.801 15.16-15.16-6.801-15.16-15.16-15.16c-3.202 0-6.17 1.004-8.62 2.705l-20.854-17.499c-1.693-1.42-4.216-1.2-5.636.493s-1.199 4.215.493 5.635zm13.76-.836c3.948 0 7.16 3.212 7.16 7.16s-3.212 7.16-7.16 7.16-7.16-3.212-7.16-7.16 3.212-7.16 7.16-7.16z"/><path d="m140.424 206.929c.658 1.5 2.125 2.395 3.665 2.395 1.64 0 8.185-3.478 9.353-4.106 1.945-1.047 2.674-3.473 1.627-5.418-1.047-1.944-3.472-2.674-5.418-1.626-2.278 1.226-4.69 2.399-7.17 3.486-2.024.886-2.945 3.245-2.057 5.269z"/><path d="m164.087 197.507c.87 0 1.747-.283 2.482-.866 14.244-11.293 17.923-22.248 18.072-22.708.679-2.092-.462-4.327-2.549-5.02-2.089-.691-4.347.441-5.053 2.525-.03.091-3.243 9.264-15.441 18.935-1.73 1.372-2.021 3.888-.649 5.619.79.996 1.958 1.515 3.138 1.515z"/></g></g></svg>